<?xml version="1.0" encoding="UTF-8" standalone="no"?>
<!-- Created with Inkscape (http://www.inkscape.org/) -->

<svg
   width="255"
   height="255"
   viewBox="0 0 67.468748 67.46875"
   version="1.1"
   id="svg1"
   xmlns="http://www.w3.org/2000/svg"
   xmlns:svg="http://www.w3.org/2000/svg">
  <defs
     id="defs1" />
  <path
     id="path3"
     style="baseline-shift:baseline;display:inline;overflow:visible;opacity:1;vector-effect:none;fill:#000000;stroke:#000000;stroke-width:0.901698;stroke-linecap:square;stroke-linejoin:round;stroke-miterlimit:0;paint-order:markers fill stroke;enable-background:accumulate;stop-color:#000000;stop-opacity:1"
     d="m 33.734374,9.4640217 c -13.387619,0 -24.2703523,10.8827333 -24.2703523,24.2703523 0,13.38762 10.8827333,24.270354 24.2703523,24.270354 13.38762,0 24.270354,-10.882734 24.270354,-24.270354 0,-13.387619 -10.882734,-24.2703523 -24.270354,-24.2703523 z m 0,2.7052613 c 11.925677,0 21.565093,9.639414 21.565093,21.565091 0,11.925677 -9.639416,21.565093 -21.565093,21.565093 -11.925677,0 -21.565091,-9.639416 -21.565091,-21.565093 0,-11.925677 9.639414,-21.565091 21.565091,-21.565091 z m 0,10.058301 A 11.271228,11.507027 0 0 0 22.463229,33.734374 11.271228,11.507027 0 0 0 33.734374,45.241166 11.271228,11.507027 0 0 0 45.005521,33.734374 11.271228,11.507027 0 0 0 33.734374,22.227584 Z M 49.107596,11.180713 a 5.4101894,5.5233729 0 0 0 -3.553788,1.358573 c 3.192886,1.78682 5.942359,4.274111 8.039303,7.252788 a 5.4101894,5.5233729 0 0 0 0.924491,-3.088184 5.4101894,5.5233729 0 0 0 -5.410006,-5.523177 z m -5.071008,3.597196 a 5.4101894,5.5233729 0 0 0 -0.339514,1.925981 5.4101894,5.5233729 0 0 0 5.410522,5.523694 5.4101894,5.5233729 0 0 0 2.475818,-0.612366 C 49.65462,18.777139 47.06586,16.42517 44.036588,14.777909 Z" />
</svg>
