<?xml version="1.0" encoding="UTF-8" standalone="no"?>
<svg
   width="249.99998"
   height="250.00002"
   viewBox="0 0 66.145828 66.145837"
   version="1.1"
   id="svg1"
   xmlns="http://www.w3.org/2000/svg"
   xmlns:svg="http://www.w3.org/2000/svg">
  <defs
     id="defs1" />
  <path
     id="auto_mode"
     style="baseline-shift:baseline;display:inline;overflow:visible;opacity:1;vector-effect:none;fill:#000000;stroke:#000000;stroke-linecap:square;stroke-linejoin:round;stroke-miterlimit:0;paint-order:markers fill stroke;enable-background:accumulate;stop-color:#000000;stop-opacity:1"
     d="m 33.197456,3.7873657 a 1.0001,1.0001 0 0 0 -0.709,0.2909383 l -8.062557,7.993827 H 13.07207 a 1.0001,1.0001 0 0 0 -0.999939,0.999939 v 11.249959 l -7.9881426,7.91993 a 1.0001,1.0001 0 0 0 -0.00568,1.414384 L 12.072135,41.7189 v 11.353312 a 1.0001,1.0001 0 0 0 0.999939,0.999939 h 11.249959 l 7.91993,7.988143 a 1.0001,1.0001 0 0 0 1.414384,0.0062 L 41.7189,54.072151 h 11.353312 a 1.0001,1.0001 0 0 0 0.999939,-0.999939 V 41.82432 l 7.988143,-7.91993 a 1.0001,1.0001 0 0 0 0.0062,-1.415934 L 54.072151,24.425899 V 13.07207 A 1.0001,1.0001 0 0 0 53.072212,12.072131 H 41.82432 L 33.90439,4.0839884 A 1.0001,1.0001 0 0 0 33.197456,3.7873657 Z m -0.01188,2.4158732 7.511686,7.5742141 a 1.0001,1.0001 0 0 0 0.711068,0.294556 H 52.072273 V 24.83776 a 1.0001,1.0001 0 0 0 0.290938,0.705383 l 7.579899,7.642428 -7.574214,7.511686 a 1.0001,1.0001 0 0 0 -0.296623,0.711068 V 52.072273 H 41.306522 a 1.0001,1.0001 0 0 0 -0.702799,0.290938 L 32.959228,59.94311 25.449092,52.368896 A 1.0001,1.0001 0 0 0 24.738025,52.072273 H 14.072009 V 41.306522 A 1.0001,1.0001 0 0 0 13.783138,40.603723 L 6.2032389,32.959228 13.777453,25.449092 a 1.0001,1.0001 0 0 0 0.294556,-0.711067 V 14.072009 H 24.83776 a 1.0001,1.0001 0 0 0 0.705383,-0.288871 z M 33.072399,17.654219 c -8.503878,0 -15.41818,6.914302 -15.41818,15.41818 0,8.503878 6.914302,15.419731 15.41818,15.419731 0.185947,0 0.367666,-0.01721 0.551905,-0.02429 a 1.0001,1.0001 0 0 0 0.172599,0.0067 c 8.215325,-0.385719 14.695251,-7.177787 14.695227,-15.402161 10e-7,-0.514023 -0.02547,-1.022831 -0.07493,-1.524454 -0.01,-0.101375 -0.02998,-0.199714 -0.04444,-0.299724 -0.02909,-0.201064 -0.05755,-0.402318 -0.0894,-0.602547 -0.031,-0.194815 -0.04907,-0.393628 -0.08733,-0.58601 -0.01989,-0.100035 -0.0486,-0.196831 -0.07338,-0.295073 -0.08471,-0.385564 -0.173213,-0.770217 -0.286287,-1.144633 -0.04392,-0.145439 -0.0988,-0.285891 -0.151412,-0.427364 -0.575703,-1.719803 -1.433855,-3.312235 -2.541447,-4.705139 -0.03627,-0.04562 -0.07794,-0.08658 -0.114722,-0.131775 -0.267055,-0.328193 -0.542833,-0.649328 -0.835607,-0.954464 -0.0065,-0.0068 -0.01337,-0.01316 -0.02015,-0.01964 -2.318619,-2.407764 -5.413218,-4.068543 -8.894031,-4.56923 -0.04229,-0.0061 -0.08582,-0.0082 -0.128674,-0.0124 -0.122688,-0.0121 -0.2461,-0.02156 -0.368453,-0.03514 -0.326977,-0.03636 -0.651958,-0.07945 -0.984953,-0.09509 a 1.0001,1.0001 0 0 0 -0.05374,-10e-4 c -0.222356,-0.0096 -0.44609,-0.01447 -0.670761,-0.01447 z m -0.32246,2.003496 v 26.83092 C 25.476545,46.317948 19.654097,40.387604 19.654097,33.072399 c 0,-7.315205 5.822448,-13.244041 13.095842,-13.414684 z"
     />
</svg>
