<?xml version="1.0" encoding="UTF-8" standalone="no"?>
<!-- Created with Inkscape (http://www.inkscape.org/) -->

<svg
   width="249.99998"
   height="250.00002"
   viewBox="0 0 66.145828 66.145837"
   version="1.1"
   id="svg1"
   xmlns="http://www.w3.org/2000/svg"
   xmlns:svg="http://www.w3.org/2000/svg">
  <defs
     id="defs1" />
  <path
     id="dark_mode"
     style="baseline-shift:baseline;display:inline;overflow:visible;vector-effect:none;fill:#000000;stroke:#000000;stroke-linecap:square;stroke-linejoin:round;stroke-miterlimit:0;paint-order:markers fill stroke;enable-background:accumulate;stop-color:#000000;stop-opacity:1"
     d="m 33.072399,17.654219 c -8.503878,0 -15.41818,6.914302 -15.41818,15.41818 0,8.503878 6.914302,15.419731 15.41818,15.419731 8.503878,0 15.419731,-6.915853 15.419731,-15.419731 0,-8.503878 -6.915853,-15.41818 -15.419731,-15.41818 z m 0,1.999878 c 7.422997,0 13.419853,5.995304 13.419853,13.418302 0,7.422997 -5.996856,13.419854 -13.419853,13.419853 -7.422998,0 -13.418302,-5.996856 -13.418302,-13.419853 0,-7.422998 5.995304,-13.418302 13.418302,-13.418302 z m 0,0 c -7.422998,0 -13.418302,5.995304 -13.418302,13.418302 0,7.422997 5.995304,13.419853 13.418302,13.419853 7.422997,10e-7 13.419853,-5.996856 13.419853,-13.419853 0,-7.422998 -5.996856,-13.418302 -13.419853,-13.418302 z M 33.197456,3.7873657 a 1.0001,1.0001 0 0 0 -0.709,0.2909383 l -8.062557,7.993827 H 13.07207 a 1.0001,1.0001 0 0 0 -0.999939,0.999939 v 11.249959 l -7.9881426,7.91993 a 1.0001,1.0001 0 0 0 -0.00568,1.414384 L 12.072135,41.7189 v 11.353312 a 1.0001,1.0001 0 0 0 0.999939,0.999939 h 11.249959 l 7.91993,7.988143 a 1.0001,1.0001 0 0 0 1.414384,0.0062 L 41.7189,54.072151 h 11.353312 a 1.0001,1.0001 0 0 0 0.999939,-0.999939 V 41.82432 l 7.988143,-7.91993 a 1.0001,1.0001 0 0 0 0.0062,-1.415934 L 54.072151,24.425899 V 13.07207 A 1.0001,1.0001 0 0 0 53.072212,12.072131 H 41.82432 L 33.90439,4.0839884 A 1.0001,1.0001 0 0 0 33.197456,3.7873657 Z m -0.01188,2.4158732 7.511686,7.5742141 a 1.0001,1.0001 0 0 0 0.711068,0.294556 H 52.072273 V 24.83776 a 1.0001,1.0001 0 0 0 0.290938,0.705383 l 7.579899,7.642428 -7.574214,7.511686 a 1.0001,1.0001 0 0 0 -0.296623,0.711068 V 52.072273 H 41.306522 a 1.0001,1.0001 0 0 0 -0.702799,0.290938 L 32.959228,59.94311 25.449092,52.368896 A 1.0001,1.0001 0 0 0 24.738025,52.072273 H 14.072009 V 41.306522 A 1.0001,1.0001 0 0 0 13.783138,40.603723 L 6.2032389,32.959228 13.777453,25.449092 a 1.0001,1.0001 0 0 0 0.294556,-0.711067 V 14.072009 H 24.83776 a 1.0001,1.0001 0 0 0 0.705383,-0.288871 z"
   />
</svg>
